<svg xmlns="http://www.w3.org/2000/svg" width="11" height="11" viewBox="0 0 11 11">
  <defs>
    <style>
      .cls-1 {
        fill-rule: evenodd;
      }
    </style>
  </defs>
  <path id="Forma_1" data-name="Forma 1" class="cls-1" d="M10.840,3.880 C10.840,4.789 10.446,5.607 9.818,6.173 L9.823,6.173 L6.435,9.542 C6.097,9.879 5.758,10.215 5.419,10.215 C5.080,10.215 4.741,9.879 4.403,9.542 L1.015,6.173 L1.020,6.173 C0.392,5.607 -0.002,4.789 -0.002,3.880 C-0.002,2.170 1.392,0.784 3.113,0.784 C4.027,0.784 4.849,1.175 5.419,1.800 C5.989,1.175 6.811,0.784 7.725,0.784 C9.445,0.784 10.840,2.170 10.840,3.880 Z"/>
</svg>
