<svg xmlns="http://www.w3.org/2000/svg" width="18" height="16" viewBox="0 0 18 16">
  <defs>
    <style>
      .cls-1 {
        fill: #171717;
        fill-rule: evenodd;
      }
    </style>
  </defs>
  <path id="g_" data-name="g+" class="cls-1" d="M16.696,8.448 L16.696,9.814 L15.579,9.814 L15.579,8.448 L14.276,8.448 L14.276,7.276 L15.579,7.276 L15.579,5.909 L16.696,5.909 L16.696,7.276 L17.999,7.276 L17.999,8.448 L16.696,8.448 ZM7.036,15.235 C3.267,15.235 0.211,12.029 0.211,8.075 C0.211,4.121 3.267,0.916 7.036,0.916 C8.896,0.916 10.582,1.697 11.813,2.961 L10.272,4.719 C9.447,3.844 8.302,3.302 7.036,3.302 C4.523,3.302 2.486,5.439 2.486,8.075 C2.486,10.711 4.523,12.848 7.036,12.848 C9.074,12.848 10.798,11.444 11.378,9.507 L7.491,9.507 L7.491,7.280 L13.862,7.280 L13.862,9.507 C13.230,12.775 10.339,15.235 7.036,15.235 Z"/>
</svg>
