<svg xmlns="http://www.w3.org/2000/svg" width="16.938" height="14.344"><path d="M16.481.279a6.815 6.815 0 01-2.209.877A3.4 3.4 0 0011.736.014 3.548 3.548 0 008.26 3.625a3.777 3.777 0 00.09.824A9.749 9.749 0 011.186.671a3.7 3.7 0 00-.47 1.817 3.653 3.653 0 001.546 3.009 3.352 3.352 0 01-1.574-.454v.046a3.585 3.585 0 002.788 3.545 3.348 3.348 0 01-1.57.062 3.5 3.5 0 003.246 2.511 6.807 6.807 0 01-4.316 1.547 6.879 6.879 0 01-.829-.05 9.561 9.561 0 005.328 1.625c6.393 0 9.888-5.509 9.888-10.287l-.011-.469a7.156 7.156 0 001.737-1.869 6.744 6.744 0 01-2 .57A3.617 3.617 0 0016.481.279z" fill="#171717" fill-rule="evenodd"/></svg>