<svg xmlns="http://www.w3.org/2000/svg" width="18.75" height="19.187"><path d="M13.575.009h-8.4A5.24 5.24 0 000 5.301v8.593a5.24 5.24 0 005.174 5.293h8.4a5.24 5.24 0 005.174-5.292V5.302A5.24 5.24 0 0013.575.009zm3.511 13.885a3.556 3.556 0 01-3.511 3.591h-8.4a3.556 3.556 0 01-3.511-3.591V5.301A3.556 3.556 0 015.175 1.71h8.4a3.556 3.556 0 013.511 3.591v8.593zM9.375 4.657a4.942 4.942 0 104.831 4.941 4.892 4.892 0 00-4.832-4.941zm0 8.181a3.241 3.241 0 113.168-3.24 3.209 3.209 0 01-3.169 3.24zm5.034-9.624a1.209 1.209 0 00-.862.365 1.266 1.266 0 000 1.765 1.2 1.2 0 001.725 0 1.269 1.269 0 000-1.765 1.209 1.209 0 00-.864-.365z" fill="#171717" fill-rule="evenodd"/></svg>