<svg xmlns="http://www.w3.org/2000/svg" width="18" height="16"><path data-name="g+" d="M16.696 8.448v1.366h-1.117V8.448h-1.303V7.276h1.303V5.909h1.117v1.367h1.303v1.172h-1.303zm-9.66 6.787c-3.769 0-6.825-3.206-6.825-7.16S3.267.916 7.036.916c1.86 0 3.546.781 4.777 2.045l-1.541 1.758a4.435 4.435 0 00-3.236-1.417c-2.513 0-4.55 2.137-4.55 4.773 0 2.636 2.037 4.773 4.55 4.773 2.038 0 3.762-1.404 4.342-3.341H7.491V7.28h6.371v2.227c-.632 3.268-3.523 5.728-6.826 5.728z" fill="#171717" fill-rule="evenodd"/></svg>