<svg xmlns="http://www.w3.org/2000/svg" xmlns:xlink="http://www.w3.org/1999/xlink"><symbol id="icon-like"><path data-name="Forma 1" d="M10.84 3.88c0 .909-.394 1.727-1.022 2.293h.005L6.435 9.542c-.338.337-.677.673-1.016.673-.339 0-.678-.336-1.016-.673L1.015 6.173h.005A3.078 3.078 0 01-.002 3.88 3.105 3.105 0 013.113.784 3.11 3.11 0 015.419 1.8 3.11 3.11 0 017.725.784 3.106 3.106 0 0110.84 3.88z" fill-rule="evenodd"/></symbol><symbol id="icon-more"><path data-name="Form 1" d="M1.204 10.877l5.294-5.44L1.204-.004-.007 1.223l4.1 4.214-4.1 4.213z" fill-rule="evenodd"/></symbol><symbol id="icon-share"><path data-name="Forma 1" d="M9.58 7.578a1.937 1.937 0 00-1.43.63L3.93 6.101a1.509 1.509 0 00.03-.3 1.438 1.438 0 00-.03-.294l4.21-2.084a1.952 1.952 0 001.44.635A2.021 2.021 0 107.6 2.037a2.845 2.845 0 00.02.295L3.41 4.415a1.947 1.947 0 00-1.43-.635 2.021 2.021 0 000 4.042 1.952 1.952 0 001.43-.629l4.21 2.106a2.983 2.983 0 00-.02.3 1.98 1.98 0 101.98-2.021z" fill-rule="evenodd"/></symbol></svg>