<svg xmlns="http://www.w3.org/2000/svg" width="16" height="15"><path data-name="search" d="M15.678 13.393l-4.813-4.512a5.357 5.357 0 001.111-3.251c0-3.104-2.684-5.618-5.993-5.618C2.673.012-.01 2.526-.01 5.63c0 3.103 2.683 5.619 5.993 5.619a6.236 6.236 0 003.467-1.041l4.813 4.512c.195.183.452.276.708.276.256 0 .512-.093.707-.276a.897.897 0 000-1.327zm-6.44-5.598l-.393.518-.553.369a4.145 4.145 0 01-2.309.693c-2.203 0-3.995-1.679-3.995-3.745 0-2.065 1.792-3.747 3.995-3.747 2.203 0 3.995 1.682 3.995 3.747a3.56 3.56 0 01-.74 2.165z" fill="#171717" fill-rule="evenodd"/></svg>