<svg xmlns="http://www.w3.org/2000/svg" width="15" height="16"><path d="M14.04 5.452H12.6V7.22a1.147 1.147 0 01.31.778 1.17 1.17 0 11-1.96-.859V5.452H4.23v1.72a1.169 1.169 0 11-2 .826 1.135 1.135 0 01.35-.826v-1.72H.96a.956.956 0 00-.96.952v8.643a.956.956 0 00.96.952h13.08a.956.956 0 00.96-.952V6.4a.957.957 0 00-.96-.948zm-2.26 3.027a.477.477 0 01-.48-.48V4.643a3.71 3.71 0 00-7.42 0V8a.477.477 0 01-.48.481A.484.484 0 012.92 8V4.643a4.67 4.67 0 019.34 0V8a.477.477 0 01-.48.478z" fill="#202020" fill-rule="evenodd"/></svg>